<?xml version="1.0" encoding="utf-8"?>
<!-- Generator: Adobe Illustrator 25.0.0, SVG Export Plug-In . SVG Version: 6.00 Build 0)  -->
<svg version="1.1" id="Layer_1" xmlns="http://www.w3.org/2000/svg" xmlns:xlink="http://www.w3.org/1999/xlink" x="0px" y="0px"
	 viewBox="0 0 170 12.7" style="enable-background:new 0 0 170 12.7;" xml:space="preserve">
<polygon points="12.1,2.6 12.1,0.4 0,0.4 0,2.6 4.1,2.6 4.1,12.7 8.2,12.7 8.2,2.6 "/>
<path d="M23,8.1c1.6-0.7,2.6-2,2.6-3.5c0-2.3-2.4-4.2-5.4-4.2c-0.7,0-7,0-7,0v12.4h4.1V7.8l4.4,4.9h5.4L23,8.1z M21.5,4.6
	c0,1-1.2,1.8-2.4,1.8h-1.8V2.6h1.8C20.3,2.6,21.5,3.5,21.5,4.6z"/>
<polygon points="34.7,7.4 40.6,0.4 37.7,0.4 33.9,4.9 30.2,0.4 24.8,0.4 30.7,7.4 30.7,12.7 34.7,12.7 "/>
<rect x="44.8" y="0.4" width="4.1" height="12.4"/>
<polygon points="62.2,2.6 62.2,0.4 50,0.4 50,2.6 54,2.6 54,12.7 58.2,12.7 58.2,2.6 "/>
<polygon points="74.4,7.4 80.3,0.4 77.4,0.4 73.6,4.9 69.8,0.4 64.4,0.4 70.3,7.4 70.3,12.7 74.4,12.7 "/>
<path d="M88.4,6.6c0,2.3-1.1,4.1-2.4,4.1c-1.4,0-2.5-1.8-2.5-4.1c0-2.3,1.1-4.1,2.5-4.1C87.3,2.5,88.4,4.3,88.4,6.6z M92.8,6.6
	C92.8,3,89.8,0,86,0s-7,3-7,6.6c0,3.6,3.1,6.6,7,6.6S92.8,10.2,92.8,6.6z"/>
<path d="M106.2,7.9V0.4h-2.3v7.7c0,1.8-1.1,2.6-2.5,2.6c-1.3,0-2.4-0.8-2.4-2.6V0.4h-4.2v7.6c0,3.1,2.5,5.3,5.6,5.3
	C103.5,13.2,106.2,11.1,106.2,7.9z"/>
<path d="M118.5,8.1c1.6-0.7,2.6-2,2.6-3.5c0-2.3-2.4-4.2-5.4-4.2c-0.7,0-7,0-7,0v12.4h4.1V7.8l4.3,4.9h5.5L118.5,8.1z M117,4.6
	c0,1-1.1,1.8-2.4,1.8h-1.7V2.6h1.7C115.9,2.6,117,3.5,117,4.6z"/>
<path d="M134.2,9.4c0.1-1.6-0.7-3.2-4.3-4.4c-1.7-0.7-2.3-1.2-2.3-1.7c0-0.5,0.5-0.7,1.2-0.7c1.7,0,3,0.5,4.1,1.2l1.1-1.7
	c-1.2-1-3.4-2-5.8-2C125,0,123,1.7,123,3.8c0,1.7,1.3,3,3.8,4c2,0.8,2.8,1.2,2.8,1.8c0,0.6-0.6,1.1-1.6,1.1c-1.8,0-3.1-0.7-4.3-1.7
	l-1.2,1.6c1.3,1.4,3.4,2.6,6,2.6C132.1,13.2,134,11.2,134.2,9.4z"/>
<polygon points="146.4,12.7 146.4,10.6 140.4,10.6 140.4,7.2 144.6,7.2 144.6,4.9 140.4,4.9 140.4,2.6 146.4,2.6 146.4,0.4 
	136.3,0.4 136.3,12.7 "/>
<polygon points="158.8,12.7 158.8,10.6 152.8,10.6 152.8,0.4 148.7,0.4 148.7,12.7 "/>
<polygon points="159.8,12.7 163.9,12.7 163.9,7.2 168.1,7.2 168.1,4.9 163.9,4.9 163.9,2.6 170,2.6 170,0.4 159.8,0.4 "/>
</svg>
