<?xml version="1.0" encoding="utf-8"?>
<!-- Generator: Adobe Illustrator 25.4.1, SVG Export Plug-In . SVG Version: 6.00 Build 0)  -->
<svg version="1.1" id="Layer_1" xmlns="http://www.w3.org/2000/svg" xmlns:xlink="http://www.w3.org/1999/xlink" x="0px" y="0px"
	 viewBox="0 0 172.5 15.8" style="enable-background:new 0 0 172.5 15.8;" xml:space="preserve">
<style type="text/css">
	.st0{fill:#FFD700;}
</style>
<g>
	<polygon points="5.1,14.5 5.1,4.4 1,4.4 1,1.7 13.6,1.7 13.6,4.4 9.7,4.4 9.7,14.5 	"/>
	<path class="st0" d="M13.4,1.9v2.2H9.4v10.1H5.4V4.1H1.3V1.9H13.4 M13.9,1.4h-0.5H1.3H0.8v0.5v2.2v0.5h0.5h3.6v9.6v0.5h0.5h4.1h0.5
		v-0.5V4.6h3.4h0.5V4.1V1.9V1.4L13.9,1.4z"/>
</g>
<g>
	<path d="M14.2,14.6V1.7h7.2c3.1,0,5.6,2,5.6,4.5c0,1.5-0.9,2.8-2.4,3.6l4.2,4.8h-6.1l-4-4.5v4.6H14.2z M20.4,7.7
		c1.1,0,2.1-0.7,2.1-1.5c0-0.9-1-1.8-2.1-1.8h-1.6v3.3H20.4z"/>
	<path class="st0" d="M21.5,2c3,0,5.4,1.9,5.4,4.2c0,1.5-1,2.8-2.6,3.5l4.1,4.6H23l-4.4-4.9v5h-4.1V2C14.5,2,20.8,2,21.5,2 M18.6,8
		h1.8c1.2,0,2.4-0.8,2.4-1.8c0-1.1-1.2-2-2.4-2h-1.8V8 M21.5,1.5h-7H14V2v12.4v0.5h0.5h4.1h0.5v-0.5v-3.7l3.5,3.9l0.1,0.2H23h5.4
		h1.1l-0.7-0.8l-3.7-4.1c1.4-0.8,2.3-2.2,2.3-3.7C27.4,3.6,24.7,1.5,21.5,1.5L21.5,1.5z M19.1,4.7h1.3c1,0,1.9,0.7,1.9,1.5
		c0,0.7-0.9,1.3-1.9,1.3h-1.3V4.7L19.1,4.7z"/>
</g>
<g>
	<polygon points="31.7,14.5 31.7,9 25.5,1.7 31.6,1.7 35.2,6.1 38.8,1.7 42.4,1.7 36.2,9 36.2,14.5 	"/>
	<path class="st0" d="M41.8,1.9l-5.9,7v5.3h-4V8.9l-5.9-7h5.4l3.7,4.5l3.8-4.5H41.8 M42.9,1.4h-1.1h-2.9h-0.2l-0.1,0.2l-3.4,4
		l-3.3-4l-0.2-0.2h-0.2H26H25l0.7,0.8l5.8,6.9v5.1v0.5h0.5h4h0.5v-0.5V9.1l5.8-6.9L42.9,1.4L42.9,1.4z"/>
</g>
<g>
	<rect x="45.8" y="1.7" width="4.6" height="12.9"/>
	<path class="st0" d="M50.1,1.9v12.4H46V1.9H50.1 M50.6,1.4h-0.5H46h-0.5v0.5v12.4v0.5H46h4.1h0.5v-0.5V1.9V1.4L50.6,1.4z"/>
</g>
<g>
	<polygon points="55,14.5 55,4.4 51,4.4 51,1.7 63.7,1.7 63.7,4.4 59.7,4.4 59.7,14.5 	"/>
	<path class="st0" d="M63.4,1.9v2.2h-4v10.1h-4.2V4.1h-4V1.9H63.4 M63.9,1.4h-0.5H51.2h-0.5v0.5v2.2v0.5h0.5h3.5v9.6v0.5h0.5h4.2
		h0.5v-0.5V4.6h3.5h0.5V4.1V1.9V1.4L63.9,1.4z"/>
</g>
<g>
	<polygon points="71.3,14.5 71.3,9 65.1,1.7 71.2,1.7 74.9,6.1 78.5,1.7 82.1,1.7 75.9,9 75.9,14.5 	"/>
	<path class="st0" d="M81.6,1.9l-5.9,7v5.3h-4.1V8.9l-5.9-7h5.4l3.8,4.5l3.8-4.5H81.6 M82.6,1.4h-1.1h-2.9h-0.2l-0.1,0.2l-3.4,4
		l-3.4-4l-0.1-0.2h-0.2h-5.4h-1.1l0.7,0.8l5.8,6.9v5.1v0.5h0.5h4.1h0.5v-0.5V9.1l5.8-6.9L82.6,1.4L82.6,1.4z"/>
</g>
<g>
	<path d="M87.2,15c-4,0-7.2-3.1-7.2-6.9c0-3.7,3.3-6.9,7.2-6.9c3.9,0,7,3.1,7,6.9C94.3,12,91.2,15,87.2,15z M87.2,4.3
		C86,4.3,85,6,85,8.2c0,2.1,1,3.9,2.2,3.9c1.2,0,2.2-1.8,2.2-3.9C89.4,6.1,88.4,4.3,87.2,4.3z"/>
	<path class="st0" d="M87.2,1.6c3.8,0,6.8,3,6.8,6.6s-2.9,6.6-6.8,6.6s-7-3-7-6.6S83.5,1.6,87.2,1.6 M87.2,12.2
		c1.3,0,2.4-1.8,2.4-4.1s-1.1-4.1-2.4-4.1c-1.4,0-2.5,1.8-2.5,4.1S85.8,12.2,87.2,12.2 M87.2,1.1c-4.1,0-7.5,3.3-7.5,7.1
		c0,3.9,3.4,7.1,7.5,7.1c4.1,0,7.3-3.1,7.3-7.1C94.6,4.2,91.3,1.1,87.2,1.1L87.2,1.1z M87.2,11.8c-1.1,0-2-1.6-2-3.6s0.9-3.6,2-3.6
		c0.9,0,1.9,1.5,1.9,3.6S88.1,11.8,87.2,11.8L87.2,11.8z"/>
</g>
<g>
	<path d="M101.7,15.1c-3.3,0-5.9-2.4-5.9-5.5V1.7h4.7v7.9c0,1.5,0.8,2.4,2.2,2.4c1.4,0,2.2-0.9,2.2-2.4V1.7h2.8v7.8
		C107.7,12.6,105.1,15,101.7,15.1L101.7,15.1L101.7,15.1z"/>
	<path class="st0" d="M107.4,1.9v7.5c0,3.2-2.7,5.3-5.8,5.4c-3.1,0-5.6-2.2-5.6-5.3V1.9h4.2v7.7c0,1.8,1.1,2.6,2.4,2.6
		c1.4,0,2.5-0.8,2.5-2.6V1.9H107.4 M107.9,1.4h-0.5h-2.3h-0.5v0.5v7.7c0,1.8-1.3,2.1-2,2.1c-0.6,0-1.9-0.2-1.9-2.1V1.9V1.4h-0.5
		h-4.2h-0.5v0.5v7.6c0,3.3,2.6,5.8,6.1,5.8c3.6-0.1,6.3-2.7,6.3-5.9V1.9V1.4L107.9,1.4z"/>
</g>
<g>
	<path d="M109.7,14.6V1.7h7.2c3.1,0,5.6,2,5.6,4.5c0,1.5-0.9,2.8-2.4,3.6l4.2,4.8h-6.2l-3.9-4.5v4.6H109.7z M115.8,7.7
		c1.2,0,2.2-0.7,2.2-1.5c0-0.9-1-1.8-2.2-1.8h-1.4v3.3H115.8z"/>
	<path class="st0" d="M116.9,2c3,0,5.4,1.9,5.4,4.2c0,1.5-1,2.8-2.6,3.5l4.1,4.6h-5.5L114,9.4v5h-4.1V2C109.9,2,116.3,2,116.9,2
		 M114.2,8h1.7c1.3,0,2.4-0.8,2.4-1.8c0-1.1-1.1-2-2.4-2h-1.7V8 M116.9,1.5h-7h-0.5V2v12.4v0.5h0.5h4.1h0.5v-0.5v-3.7l3.4,3.9
		l0.1,0.2h0.2h5.5h1.1l-0.7-0.8l-3.7-4.1c1.4-0.8,2.3-2.2,2.3-3.7C122.8,3.6,120.2,1.5,116.9,1.5L116.9,1.5z M114.7,4.7h1.2
		c1,0,1.9,0.7,1.9,1.5c0,0.7-0.9,1.3-1.9,1.3h-1.2V4.7L114.7,4.7z"/>
</g>
<g>
	<path d="M129.8,15c-2.3,0-4.6-1-6.2-2.7l-0.1-0.2l1.5-2l0.2,0.2c1.4,1.2,2.6,1.6,4.1,1.6c0.8,0,1.3-0.3,1.3-0.9
		c0-0.4-0.8-0.8-2.6-1.6c-2.7-1.1-4-2.4-4-4.2c0-2.3,2.2-4,5.2-4l0.3,0c2.6,0,4.8,1.1,6,2.1l0.2,0.1l-1.4,2.1L134,5.6
		c-1.2-0.8-2.5-1.2-4-1.2c-0.4,0-1,0.1-1,0.4c0,0.4,0.7,0.9,2.1,1.5c3.2,1.1,4.6,2.5,4.5,4.6C135.5,13,133.4,15,129.8,15z"/>
	<path class="st0" d="M129.2,1.6c0.1,0,0.2,0,0.3,0c2.4,0,4.6,1,5.8,2l-1.1,1.7c-1.1-0.7-2.4-1.2-4.1-1.2c-0.7,0-1.2,0.2-1.2,0.7
		s0.6,1,2.3,1.7c3.6,1.2,4.4,2.8,4.3,4.4c-0.2,1.8-2.1,3.8-5.7,3.8c-2.6,0-4.7-1.2-6-2.6l1.2-1.6c1.2,1,2.5,1.7,4.3,1.7
		c1,0,1.6-0.5,1.6-1.1s-0.8-1-2.8-1.8c-2.5-1-3.8-2.3-3.8-4C124.3,3.3,126.1,1.6,129.2,1.6 M129.2,1.1c-1.6,0-2.9,0.4-3.9,1.2
		c-1,0.8-1.5,1.8-1.5,3c0,1.9,1.3,3.4,4.1,4.5c0.9,0.4,2.5,1,2.5,1.3c0,0.3-0.5,0.6-1.1,0.6c-1.5,0-2.6-0.5-4-1.6l-0.4-0.3l-0.3,0.4
		l-1.2,1.6l-0.3,0.3l0.3,0.3c1.6,1.8,3.9,2.8,6.4,2.8c3.8,0,6-2.1,6.2-4.2c0.1-2.3-1.3-3.8-4.6-4.9c-1.8-0.7-2-1.1-2-1.2
		c0-0.1,0.4-0.2,0.7-0.2c1.4,0,2.6,0.4,3.8,1.1l0.4,0.3l0.3-0.4l1.1-1.7l0.2-0.4l-0.3-0.3c-1.2-1-3.5-2.1-6.1-2.1
		C129.4,1.1,129.3,1.1,129.2,1.1L129.2,1.1z"/>
</g>
<g>
	<polygon points="137.3,14.5 137.3,1.7 147.9,1.7 147.9,4.4 141.9,4.4 141.9,6.2 146.1,6.2 146.1,9 141.9,9 141.9,11.9 147.9,11.9 
		147.9,14.5 	"/>
	<path class="st0" d="M147.6,1.9v2.2h-6v2.3h4.2v2.3h-4.2v3.4h6v2.1h-10.1V1.9H147.6 M148.1,1.4h-0.5h-10.1h-0.5v0.5v12.3v0.5h0.5
		h10.1h0.5v-0.5v-2.1v-0.5h-0.5h-5.5V9.2h3.7h0.5V8.8V6.4V5.9h-0.5h-3.7V4.6h5.5h0.5V4.1V1.9V1.4L148.1,1.4z"/>
</g>
<g>
	<polygon points="149.7,14.5 149.7,1.7 154.3,1.7 154.3,11.9 160.3,11.9 160.3,14.5 	"/>
	<path class="st0" d="M154.1,1.9v10.2h6v2.1h-10.1V1.9H154.1 M154.6,1.4h-0.5h-4.1h-0.5v0.5v12.3v0.5h0.5h10.1h0.5v-0.5v-2.1v-0.5
		h-0.5h-5.5V1.9V1.4L154.6,1.4z"/>
</g>
<g>
	<polygon points="160.8,14.5 160.8,1.7 171.5,1.7 171.5,4.4 165.4,4.4 165.4,6.2 169.6,6.2 169.6,9 165.4,9 165.4,14.5 	"/>
	<path class="st0" d="M171.2,1.9v2.2h-6.1v2.3h4.2v2.3h-4.2v5.5h-4.1V1.9H171.2 M171.8,1.4h-0.5h-10.2h-0.5v0.5v12.3v0.5h0.5h4.1
		h0.5v-0.5v-5h3.7h0.5V8.8V6.4V5.9h-0.5h-3.7V4.6h5.6h0.5V4.1V1.9V1.4L171.8,1.4z"/>
</g>
</svg>
